<svg width="319" height="165" viewBox="0 0 319 165" fill="none" xmlns="http://www.w3.org/2000/svg">
<rect y="52" width="319" height="41" fill="#73AE04"/>
<path d="M101.457 103.096C88.7625 78.0593 78.7905 101.93 78.9572 114.596C1.95717 72.0962 53.9572 8.59628 107.457 2.59613C98.9572 23.5964 89.4572 42.0964 113.957 60.5962C139.957 47.0963 150.957 63.5963 163.957 72.0963C193.957 51.5963 212.457 53.5962 217.957 60.5962C246.957 52.0962 234.957 20.0964 230.457 2.59636C227.243 -9.90339 295.957 24.5964 295.957 66.0962C295.957 83.0964 288.457 116.597 251.457 107.096C251.457 79.5964 226.457 88.5964 230.457 103.096L163.957 164.096C161.957 148.096 119.457 138.596 101.457 103.096Z" fill="#73AE04"/>
</svg>
